<svg xmlns="http://www.w3.org/2000/svg" width="1190" height="460" viewBox="0 0 1190 460">
<rect width="100%" height="100%" fill="white"/>
<text x="595.0" y="28" text-anchor="middle" font-family="Times New Roman" font-size="16">Average end-to-end delay distribution by ablation</text>
<line x1="84" y1="382" x2="1166" y2="382" stroke="#334155" stroke-width="1.2"/>
<line x1="84" y1="52" x2="84" y2="382" stroke="#334155" stroke-width="1.2"/>
<text x="18" y="230.0" transform="rotate(-90 18 230.0)" text-anchor="middle" font-family="Times New Roman" font-size="13">Delay (s)</text>
<line x1="84" y1="382.0" x2="1166" y2="382.0" stroke="#e5e7eb" stroke-width="0.7"/>
<text x="76" y="386.0" text-anchor="end" font-family="Times New Roman" font-size="11">32.1</text>
<line x1="84" y1="316.0" x2="1166" y2="316.0" stroke="#e5e7eb" stroke-width="0.7"/>
<text x="76" y="320.0" text-anchor="end" font-family="Times New Roman" font-size="11">37.5</text>
<line x1="84" y1="250.0" x2="1166" y2="250.0" stroke="#e5e7eb" stroke-width="0.7"/>
<text x="76" y="254.0" text-anchor="end" font-family="Times New Roman" font-size="11">43</text>
<line x1="84" y1="184.0" x2="1166" y2="184.0" stroke="#e5e7eb" stroke-width="0.7"/>
<text x="76" y="188.0" text-anchor="end" font-family="Times New Roman" font-size="11">48.4</text>
<line x1="84" y1="118.0" x2="1166" y2="118.0" stroke="#e5e7eb" stroke-width="0.7"/>
<text x="76" y="122.0" text-anchor="end" font-family="Times New Roman" font-size="11">53.9</text>
<line x1="84" y1="52.0" x2="1166" y2="52.0" stroke="#e5e7eb" stroke-width="0.7"/>
<text x="76" y="56.0" text-anchor="end" font-family="Times New Roman" font-size="11">59.3</text>
<text x="161.3" y="406" text-anchor="middle" font-family="Times New Roman" font-size="11">Full</text>
<line x1="161.3" y1="359.2" x2="161.3" y2="324.0" stroke="#475569" stroke-width="1.5"/>
<rect x="132.3" y="333.8" width="58.0" height="17.1" fill="#dbeafe" stroke="#2563eb" stroke-width="1.5"/>
<line x1="132.3" y1="342.6" x2="190.3" y2="342.6" stroke="#1e3a8a" stroke-width="2.0"/>
<circle cx="161.3" cy="342.1" r="3" fill="#dc2626"/>
<text x="315.9" y="406" text-anchor="middle" font-family="Times New Roman" font-size="11">No Bandit</text>
<line x1="315.9" y1="341.7" x2="315.9" y2="299.4" stroke="#475569" stroke-width="1.5"/>
<rect x="286.9" y="300.9" width="58.0" height="26.7" fill="#dbeafe" stroke="#2563eb" stroke-width="1.5"/>
<line x1="286.9" y1="312.2" x2="344.9" y2="312.2" stroke="#1e3a8a" stroke-width="2.0"/>
<circle cx="315.9" cy="316.3" r="3" fill="#dc2626"/>
<text x="470.4" y="406" text-anchor="middle" font-family="Times New Roman" font-size="11">Shortest-Hop Routing</text>
<line x1="470.4" y1="203.5" x2="470.4" y2="173.5" stroke="#475569" stroke-width="1.5"/>
<rect x="441.4" y="190.8" width="58.0" height="10.5" fill="#dbeafe" stroke="#2563eb" stroke-width="1.5"/>
<line x1="441.4" y1="198.7" x2="499.4" y2="198.7" stroke="#1e3a8a" stroke-width="2.0"/>
<circle cx="470.4" cy="193.6" r="3" fill="#dc2626"/>
<text x="625.0" y="406" text-anchor="middle" font-family="Times New Roman" font-size="11">Nearest Replica</text>
<line x1="625.0" y1="154.5" x2="625.0" y2="74.8" stroke="#475569" stroke-width="1.5"/>
<rect x="596.0" y="79.9" width="58.0" height="47.8" fill="#dbeafe" stroke="#2563eb" stroke-width="1.5"/>
<line x1="596.0" y1="100.2" x2="654.0" y2="100.2" stroke="#1e3a8a" stroke-width="2.0"/>
<circle cx="625.0" cy="107.4" r="3" fill="#dc2626"/>
<text x="779.6" y="406" text-anchor="middle" font-family="Times New Roman" font-size="11">Service Pressure</text>
<line x1="779.6" y1="191.5" x2="779.6" y2="152.6" stroke="#475569" stroke-width="1.5"/>
<rect x="750.6" y="163.5" width="58.0" height="20.1" fill="#dbeafe" stroke="#2563eb" stroke-width="1.5"/>
<line x1="750.6" y1="174.1" x2="808.6" y2="174.1" stroke="#1e3a8a" stroke-width="2.0"/>
<circle cx="779.6" cy="173.1" r="3" fill="#dc2626"/>
<text x="934.1" y="406" text-anchor="middle" font-family="Times New Roman" font-size="11">SC-NFV</text>
<line x1="934.1" y1="267.6" x2="934.1" y2="227.3" stroke="#475569" stroke-width="1.5"/>
<rect x="905.1" y="248.8" width="58.0" height="14.4" fill="#dbeafe" stroke="#2563eb" stroke-width="1.5"/>
<line x1="905.1" y1="258.9" x2="963.1" y2="258.9" stroke="#1e3a8a" stroke-width="2.0"/>
<circle cx="934.1" cy="253.2" r="3" fill="#dc2626"/>
<text x="1088.7" y="406" text-anchor="middle" font-family="Times New Roman" font-size="11">Fairness-NFV</text>
<line x1="1088.7" y1="350.6" x2="1088.7" y2="315.3" stroke="#475569" stroke-width="1.5"/>
<rect x="1059.7" y="321.6" width="58.0" height="19.2" fill="#dbeafe" stroke="#2563eb" stroke-width="1.5"/>
<line x1="1059.7" y1="330.6" x2="1117.7" y2="330.6" stroke="#1e3a8a" stroke-width="2.0"/>
<circle cx="1088.7" cy="331.8" r="3" fill="#dc2626"/>
</svg>