<svg xmlns="http://www.w3.org/2000/svg" width="980" height="460" viewBox="0 0 980 460">
<rect width="100%" height="100%" fill="white"/>
<text x="490.0" y="28" text-anchor="middle" font-family="Times New Roman" font-size="16">P95 energy consumption by time slot</text>
<line x1="80" y1="398" x2="956" y2="398" stroke="#334155" stroke-width="1.2"/>
<line x1="80" y1="52" x2="80" y2="398" stroke="#334155" stroke-width="1.2"/>
<text x="490.0" y="442" text-anchor="middle" font-family="Times New Roman" font-size="13">Time slot</text>
<text x="18" y="230.0" transform="rotate(-90 18 230.0)" text-anchor="middle" font-family="Times New Roman" font-size="13">Energy (J)</text>
<line x1="80" y1="398.0" x2="956" y2="398.0" stroke="#e5e7eb" stroke-width="0.7"/>
<text x="72" y="402.0" text-anchor="end" font-family="Times New Roman" font-size="11">-467</text>
<line x1="80" y1="328.8" x2="956" y2="328.8" stroke="#e5e7eb" stroke-width="0.7"/>
<text x="72" y="332.8" text-anchor="end" font-family="Times New Roman" font-size="11">887</text>
<line x1="80" y1="259.6" x2="956" y2="259.6" stroke="#e5e7eb" stroke-width="0.7"/>
<text x="72" y="263.6" text-anchor="end" font-family="Times New Roman" font-size="11">2.24e+03</text>
<line x1="80" y1="190.4" x2="956" y2="190.4" stroke="#e5e7eb" stroke-width="0.7"/>
<text x="72" y="194.4" text-anchor="end" font-family="Times New Roman" font-size="11">3.6e+03</text>
<line x1="80" y1="121.2" x2="956" y2="121.2" stroke="#e5e7eb" stroke-width="0.7"/>
<text x="72" y="125.2" text-anchor="end" font-family="Times New Roman" font-size="11">4.95e+03</text>
<line x1="80" y1="52.0" x2="956" y2="52.0" stroke="#e5e7eb" stroke-width="0.7"/>
<text x="72" y="56.0" text-anchor="end" font-family="Times New Roman" font-size="11">6.3e+03</text>
<polyline fill="none" stroke="#2563eb" stroke-width="2.1" points="80.0,257.6 81.4,257.5 82.9,213.0 84.3,239.2 85.8,266.7 87.2,279.2 88.7,240.8 90.1,260.9 91.6,255.9 93.0,254.4 94.5,238.8 95.9,241.9 97.4,231.0 98.8,279.3 100.3,242.9 101.7,291.6 103.2,254.4 104.6,286.3 106.1,270.1 107.5,279.1 109.0,251.0 110.4,286.7 111.9,229.6 113.3,286.2 114.8,266.9 116.2,269.4 117.6,229.5 119.1,264.5 120.5,275.8 122.0,239.0 123.4,251.6 124.9,241.5 126.3,267.0 127.8,263.2 129.2,254.3 130.7,252.9 132.1,253.7 133.6,290.1 135.0,279.7 136.5,243.4 137.9,285.7 139.4,252.0 140.8,225.5 142.3,270.7 143.7,244.1 145.2,265.2 146.6,240.7 148.1,287.9 149.5,249.9 150.9,264.7 152.4,273.3 153.8,245.8 155.3,309.3 156.7,211.5 158.2,265.9 159.6,278.2 161.1,271.2 162.5,260.0 164.0,250.6 165.4,255.7 166.9,266.2 168.3,246.5 169.8,250.8 171.2,249.9 172.7,255.0 174.1,259.3 175.6,273.4 177.0,247.6 178.5,242.7 179.9,251.2 181.4,238.9 182.8,239.9 184.3,221.5 185.7,259.6 187.1,269.1 188.6,274.6 190.0,239.3 191.5,221.2 192.9,239.2 194.4,279.1 195.8,244.6 197.3,247.2 198.7,247.0 200.2,251.4 201.6,223.6 203.1,267.0 204.5,240.9 206.0,264.3 207.4,226.8 208.9,264.2 210.3,277.7 211.8,237.7 213.2,269.0 214.7,247.4 216.1,230.4 217.6,265.1 219.0,232.6 220.4,289.2 221.9,242.3 223.3,245.6 224.8,259.8 226.2,265.9 227.7,237.0 229.1,238.8 230.6,282.9 232.0,258.8 233.5,232.6 234.9,239.8 236.4,261.7 237.8,213.2 239.3,266.3 240.7,234.9 242.2,241.6 243.6,246.3 245.1,242.8 246.5,214.1 248.0,251.7 249.4,215.3 250.9,297.0 252.3,244.3 253.8,269.6 255.2,224.1 256.6,251.4 258.1,241.3 259.5,273.2 261.0,274.0 262.4,255.5 263.9,234.7 265.3,270.3 266.8,252.3 268.2,229.6 269.7,229.3 271.1,239.0 272.6,275.2 274.0,255.5 275.5,268.1 276.9,270.8 278.4,246.9 279.8,258.0 281.3,255.0 282.7,248.1 284.2,245.0 285.6,272.1 287.1,242.9 288.5,268.5 290.0,241.3 291.4,279.1 292.8,257.6 294.3,265.0 295.7,252.9 297.2,260.5 298.6,252.2 300.1,264.4 301.5,252.1 303.0,278.9 304.4,270.9 305.9,259.3 307.3,226.9 308.8,244.0 310.2,257.5 311.7,254.5 313.1,228.7 314.6,252.6 316.0,224.7 317.5,272.8 318.9,241.6 320.4,238.5 321.8,237.2 323.3,256.6 324.7,223.6 326.1,247.1 327.6,238.1 329.0,243.7 330.5,229.6 331.9,241.9 333.4,248.9 334.8,230.5 336.3,225.4 337.7,293.9 339.2,229.8 340.6,265.4 342.1,230.6 343.5,258.0 345.0,262.9 346.4,268.8 347.9,278.3 349.3,217.8 350.8,258.0 352.2,225.5 353.7,244.3 355.1,255.8 356.6,273.0 358.0,268.7 359.5,267.2 360.9,269.1 362.3,282.2 363.8,254.3 365.2,260.6 366.7,264.3 368.1,277.1 369.6,263.9 371.0,228.6 372.5,236.9 373.9,259.8 375.4,263.7 376.8,265.3 378.3,253.4 379.7,242.6 381.2,255.2 382.6,262.3 384.1,276.1 385.5,245.7 387.0,244.4 388.4,243.0 389.9,248.0 391.3,281.4 392.8,227.9 394.2,253.9 395.6,293.5 397.1,240.6 398.5,257.3 400.0,240.4 401.4,287.0 402.9,270.4 404.3,256.2 405.8,282.0 407.2,252.3 408.7,271.5 410.1,263.3 411.6,251.3 413.0,272.1 414.5,233.4 415.9,265.2 417.4,250.5 418.8,258.0 420.3,258.4 421.7,272.5 423.2,251.9 424.6,261.8 426.1,280.2 427.5,239.2 429.0,265.9 430.4,265.4 431.8,244.2 433.3,211.3 434.7,225.3 436.2,239.5 437.6,241.6 439.1,249.8 440.5,245.0 442.0,279.9 443.4,259.5 444.9,243.0 446.3,248.9 447.8,255.5 449.2,224.3 450.7,235.6 452.1,238.2 453.6,241.2 455.0,223.8 456.5,266.7 457.9,269.7 459.4,260.7 460.8,245.1 462.3,278.3 463.7,291.8 465.2,279.2 466.6,248.8 468.0,248.3 469.5,247.2 470.9,252.1 472.4,276.3 473.8,275.9 475.3,255.0 476.7,261.7 478.2,258.5 479.6,236.5 481.1,276.2 482.5,243.7 484.0,246.6 485.4,281.0 486.9,248.7 488.3,266.9 489.8,245.0 491.2,270.7 492.7,241.9 494.1,256.7 495.6,236.3 497.0,234.3 498.5,221.3 499.9,247.3 501.3,251.5 502.8,251.7 504.2,256.5 505.7,286.7 507.1,230.7 508.6,225.0 510.0,237.1 511.5,234.7 512.9,235.9 514.4,229.6 515.8,267.5 517.3,238.0 518.7,291.0 520.2,238.5 521.6,234.2 523.1,227.9 524.5,272.1 526.0,248.3 527.4,236.2 528.9,245.6 530.3,251.9 531.8,288.5 533.2,284.8 534.7,256.8 536.1,265.5 537.5,251.5 539.0,261.4 540.4,279.1 541.9,248.7 543.3,259.9 544.8,237.8 546.2,243.7 547.7,243.9 549.1,273.4 550.6,232.5 552.0,251.5 553.5,251.2 554.9,259.1 556.4,240.4 557.8,258.1 559.3,261.4 560.7,276.7 562.2,289.6 563.6,291.4 565.1,306.6 566.5,261.3 568.0,251.0 569.4,243.7 570.8,224.6 572.3,250.0 573.7,261.7 575.2,256.3 576.6,244.2 578.1,264.6 579.5,239.8 581.0,236.4 582.4,232.5 583.9,276.3 585.3,250.6 586.8,252.4 588.2,249.3 589.7,249.7 591.1,246.5 592.6,294.3 594.0,268.5 595.5,265.1 596.9,265.2 598.4,235.5 599.8,278.3 601.3,273.4 602.7,248.1 604.2,225.0 605.6,276.4 607.0,275.8 608.5,218.6 609.9,260.7 611.4,271.2 612.8,256.6 614.3,228.7 615.7,236.2 617.2,245.6 618.6,230.9 620.1,256.6 621.5,258.8 623.0,241.9 624.4,262.2 625.9,264.0 627.3,256.2 628.8,239.0 630.2,250.6 631.7,227.3 633.1,246.8 634.6,280.7 636.0,242.9 637.5,262.4 638.9,260.4 640.4,254.3 641.8,270.9 643.2,288.6 644.7,248.1 646.1,270.8 647.6,229.5 649.0,264.4 650.5,256.1 651.9,238.5 653.4,266.2 654.8,255.8 656.3,248.5 657.7,231.8 659.2,257.1 660.6,233.5 662.1,244.3 663.5,228.7 665.0,234.7 666.4,226.6 667.9,254.4 669.3,259.9 670.8,252.9 672.2,235.5 673.7,260.9 675.1,224.6 676.5,287.2 678.0,267.4 679.4,255.5 680.9,230.8 682.3,280.2 683.8,252.3 685.2,263.7 686.7,218.6 688.1,242.8 689.6,217.4 691.0,279.1 692.5,267.9 693.9,255.1 695.4,269.5 696.8,255.6 698.3,261.6 699.7,241.5 701.2,227.5 702.6,233.6 704.1,289.0 705.5,270.5 707.0,263.9 708.4,251.6 709.9,254.0 711.3,220.3 712.7,263.0 714.2,253.7 715.6,261.9 717.1,268.0 718.5,286.1 720.0,281.9 721.4,246.7 722.9,242.0 724.3,272.2 725.8,238.8 727.2,235.2 728.7,265.4 730.1,264.7 731.6,258.7 733.0,262.2 734.5,286.7 735.9,236.3 737.4,262.3 738.8,264.3 740.3,244.2 741.7,270.1 743.2,264.6 744.6,231.2 746.0,237.9 747.5,254.3 748.9,230.6 750.4,248.6 751.8,243.8 753.3,231.1 754.7,247.6 756.2,229.0 757.6,249.5 759.1,255.3 760.5,255.6 762.0,261.9 763.4,240.1 764.9,285.6 766.3,227.9 767.8,275.2 769.2,231.8 770.7,228.6 772.1,264.3 773.6,254.5 775.0,241.6 776.5,268.5 777.9,233.4 779.4,240.9 780.8,262.1 782.2,295.8 783.7,270.5 785.1,261.4 786.6,249.4 788.0,240.8 789.5,254.1 790.9,235.8 792.4,237.1 793.8,254.2 795.3,275.2 796.7,233.8 798.2,231.5 799.6,253.4 801.1,269.8 802.5,258.8 804.0,246.7 805.4,245.8 806.9,267.0 808.3,252.9 809.8,257.5 811.2,268.3 812.7,229.8 814.1,224.5 815.6,244.8 817.0,266.7 818.4,235.5 819.9,215.4 821.3,279.4 822.8,227.1 824.2,254.7 825.7,252.1 827.1,233.8 828.6,251.0 830.0,242.0 831.5,254.1 832.9,259.2 834.4,264.7 835.8,249.2 837.3,275.1 838.7,241.1 840.2,237.1 841.6,273.7 843.1,248.5 844.5,255.4 846.0,255.3 847.4,250.8 848.9,236.9 850.3,255.9 851.7,261.7 853.2,231.8 854.6,227.5 856.1,286.3 857.5,228.4 859.0,270.6 860.4,264.2 861.9,219.7 863.3,232.1 864.8,244.0 866.2,267.9 867.7,279.5 869.1,223.1 870.6,256.7 872.0,271.4 873.5,273.4 874.9,258.4 876.4,282.2 877.8,231.0 879.3,231.6 880.7,270.3 882.2,248.3 883.6,233.6 885.1,284.6 886.5,237.9 887.9,251.6 889.4,249.1 890.8,279.2 892.3,232.1 893.7,256.3 895.2,232.0 896.6,232.7 898.1,244.9 899.5,255.9 901.0,270.0 902.4,247.8 903.9,239.0 905.3,263.9 906.8,257.3 908.2,257.3 909.7,251.7 911.1,236.5 912.6,274.4 914.0,241.5 915.5,230.6 916.9,229.7 918.4,235.2 919.8,248.1 921.2,239.5 922.7,254.4 924.1,264.0 925.6,247.5 927.0,263.3 928.5,279.8 929.9,259.0 931.4,254.1 932.8,247.4 934.3,255.2 935.7,268.0 937.2,242.6 938.6,255.7 940.1,226.9 941.5,237.3 943.0,253.0 944.4,242.5 945.9,223.7 947.3,248.2 948.8,270.1 950.2,264.5 951.7,247.0 953.1,227.2 954.6,254.0 956.0,249.7"/>
<line x1="750" y1="52" x2="780" y2="52" stroke="#2563eb" stroke-width="2.5"/>
<text x="786" y="56" font-family="Times New Roman" font-size="16">Full</text>
<polyline fill="none" stroke="#dc2626" stroke-width="2.1" points="80.0,257.6 81.4,257.5 82.9,213.0 84.3,239.2 85.8,266.7 87.2,279.2 88.7,240.8 90.1,260.9 91.6,255.9 93.0,254.4 94.5,249.3 95.9,244.1 97.4,249.4 98.8,288.0 100.3,267.6 101.7,287.9 103.2,225.7 104.6,257.4 106.1,265.6 107.5,258.2 109.0,276.5 110.4,266.1 111.9,260.0 113.3,271.8 114.8,235.5 116.2,250.8 117.6,253.8 119.1,228.0 120.5,256.6 122.0,272.0 123.4,266.5 124.9,280.7 126.3,240.0 127.8,241.2 129.2,235.9 130.7,285.4 132.1,221.6 133.6,263.5 135.0,223.0 136.5,269.9 137.9,292.1 139.4,262.6 140.8,270.9 142.3,260.2 143.7,263.2 145.2,242.9 146.6,270.6 148.1,251.1 149.5,267.2 150.9,261.2 152.4,252.4 153.8,267.0 155.3,252.4 156.7,258.7 158.2,258.1 159.6,284.1 161.1,267.8 162.5,261.6 164.0,256.1 165.4,245.4 166.9,234.4 168.3,262.9 169.8,273.4 171.2,258.7 172.7,277.7 174.1,254.7 175.6,264.1 177.0,268.1 178.5,258.4 179.9,234.7 181.4,251.8 182.8,252.9 184.3,276.8 185.7,279.8 187.1,278.7 188.6,254.9 190.0,241.2 191.5,257.4 192.9,255.2 194.4,247.5 195.8,239.9 197.3,227.1 198.7,272.3 200.2,253.1 201.6,260.2 203.1,256.7 204.5,247.6 206.0,270.2 207.4,254.4 208.9,248.5 210.3,250.1 211.8,240.5 213.2,231.4 214.7,273.9 216.1,243.6 217.6,253.9 219.0,264.7 220.4,268.6 221.9,246.6 223.3,252.3 224.8,276.3 226.2,261.7 227.7,241.2 229.1,229.6 230.6,249.7 232.0,250.0 233.5,254.7 234.9,258.6 236.4,267.6 237.8,273.5 239.3,247.4 240.7,256.3 242.2,260.8 243.6,233.4 245.1,220.8 246.5,205.1 248.0,261.5 249.4,237.0 250.9,229.1 252.3,272.3 253.8,252.1 255.2,252.8 256.6,254.1 258.1,251.2 259.5,216.2 261.0,232.5 262.4,254.3 263.9,265.9 265.3,229.9 266.8,256.3 268.2,248.9 269.7,277.2 271.1,237.5 272.6,244.3 274.0,259.3 275.5,249.2 276.9,238.8 278.4,236.6 279.8,234.5 281.3,221.4 282.7,234.7 284.2,274.6 285.6,246.8 287.1,229.5 288.5,244.5 290.0,272.3 291.4,243.8 292.8,268.0 294.3,230.9 295.7,255.6 297.2,261.3 298.6,255.2 300.1,254.6 301.5,267.5 303.0,241.4 304.4,264.1 305.9,253.0 307.3,248.0 308.8,232.2 310.2,260.0 311.7,228.4 313.1,247.2 314.6,298.8 316.0,240.2 317.5,225.0 318.9,282.1 320.4,249.4 321.8,233.9 323.3,225.7 324.7,252.6 326.1,255.1 327.6,259.2 329.0,249.4 330.5,262.2 331.9,214.7 333.4,216.0 334.8,237.8 336.3,272.1 337.7,255.1 339.2,249.8 340.6,272.5 342.1,230.0 343.5,230.3 345.0,221.1 346.4,251.4 347.9,267.1 349.3,251.6 350.8,285.9 352.2,253.2 353.7,297.0 355.1,267.4 356.6,269.0 358.0,238.0 359.5,277.7 360.9,234.1 362.3,257.6 363.8,237.3 365.2,248.9 366.7,292.9 368.1,262.9 369.6,234.8 371.0,265.5 372.5,241.5 373.9,252.2 375.4,257.2 376.8,282.3 378.3,253.1 379.7,280.8 381.2,257.3 382.6,238.4 384.1,244.2 385.5,271.6 387.0,258.4 388.4,274.0 389.9,281.6 391.3,234.6 392.8,241.0 394.2,282.1 395.6,213.9 397.1,281.0 398.5,268.4 400.0,257.0 401.4,272.4 402.9,244.5 404.3,239.7 405.8,277.9 407.2,283.8 408.7,260.6 410.1,234.1 411.6,211.0 413.0,263.7 414.5,283.9 415.9,235.2 417.4,266.1 418.8,264.4 420.3,244.8 421.7,262.9 423.2,238.6 424.6,261.0 426.1,234.0 427.5,271.0 429.0,295.4 430.4,280.6 431.8,253.2 433.3,270.6 434.7,249.9 436.2,235.8 437.6,257.1 439.1,252.1 440.5,264.1 442.0,250.4 443.4,236.9 444.9,272.5 446.3,266.3 447.8,233.1 449.2,249.7 450.7,241.3 452.1,263.7 453.6,269.6 455.0,282.3 456.5,252.9 457.9,218.4 459.4,249.7 460.8,253.6 462.3,255.1 463.7,238.3 465.2,240.6 466.6,229.1 468.0,216.0 469.5,234.2 470.9,221.5 472.4,242.4 473.8,258.0 475.3,245.6 476.7,260.3 478.2,273.7 479.6,258.9 481.1,258.8 482.5,265.9 484.0,260.3 485.4,250.4 486.9,264.7 488.3,250.7 489.8,261.9 491.2,253.4 492.7,282.7 494.1,249.5 495.6,240.2 497.0,262.6 498.5,273.4 499.9,283.6 501.3,235.9 502.8,279.4 504.2,236.1 505.7,243.2 507.1,244.7 508.6,255.9 510.0,254.8 511.5,240.6 512.9,247.2 514.4,309.4 515.8,248.4 517.3,245.2 518.7,271.5 520.2,244.1 521.6,231.5 523.1,257.7 524.5,285.4 526.0,272.2 527.4,254.1 528.9,256.8 530.3,262.0 531.8,257.1 533.2,236.9 534.7,256.7 536.1,222.3 537.5,258.9 539.0,264.0 540.4,244.1 541.9,286.9 543.3,256.7 544.8,263.3 546.2,246.6 547.7,270.3 549.1,279.0 550.6,239.8 552.0,314.4 553.5,295.8 554.9,233.1 556.4,267.0 557.8,253.5 559.3,264.0 560.7,247.4 562.2,265.8 563.6,262.9 565.1,251.9 566.5,254.1 568.0,250.8 569.4,249.5 570.8,257.7 572.3,270.0 573.7,280.5 575.2,266.4 576.6,282.9 578.1,252.4 579.5,277.9 581.0,253.6 582.4,247.0 583.9,280.3 585.3,266.4 586.8,247.3 588.2,242.9 589.7,247.3 591.1,269.0 592.6,266.8 594.0,234.0 595.5,259.6 596.9,250.2 598.4,243.0 599.8,268.1 601.3,264.5 602.7,248.5 604.2,238.7 605.6,230.9 607.0,240.1 608.5,251.5 609.9,255.9 611.4,236.5 612.8,290.1 614.3,261.2 615.7,245.3 617.2,253.2 618.6,247.9 620.1,251.9 621.5,249.2 623.0,252.8 624.4,272.2 625.9,276.5 627.3,245.6 628.8,283.8 630.2,248.6 631.7,281.8 633.1,268.3 634.6,270.7 636.0,259.8 637.5,245.1 638.9,259.4 640.4,248.6 641.8,247.0 643.2,256.4 644.7,263.6 646.1,252.1 647.6,250.2 649.0,301.1 650.5,267.7 651.9,248.7 653.4,236.2 654.8,250.2 656.3,253.0 657.7,222.3 659.2,237.1 660.6,239.7 662.1,238.1 663.5,264.4 665.0,238.7 666.4,232.5 667.9,243.4 669.3,229.8 670.8,261.9 672.2,252.9 673.7,258.5 675.1,273.9 676.5,256.6 678.0,245.0 679.4,256.3 680.9,260.8 682.3,285.2 683.8,217.5 685.2,247.8 686.7,266.7 688.1,231.0 689.6,249.4 691.0,258.6 692.5,255.9 693.9,235.1 695.4,268.5 696.8,213.2 698.3,232.4 699.7,237.3 701.2,238.6 702.6,222.3 704.1,235.5 705.5,224.0 707.0,266.3 708.4,225.1 709.9,263.6 711.3,272.6 712.7,258.7 714.2,282.6 715.6,246.1 717.1,265.0 718.5,236.6 720.0,246.6 721.4,276.6 722.9,251.3 724.3,241.6 725.8,247.8 727.2,267.1 728.7,259.9 730.1,247.5 731.6,285.4 733.0,250.4 734.5,253.5 735.9,244.9 737.4,271.3 738.8,229.7 740.3,265.2 741.7,244.0 743.2,236.5 744.6,252.2 746.0,270.7 747.5,247.4 748.9,249.6 750.4,244.9 751.8,243.3 753.3,248.8 754.7,257.0 756.2,256.2 757.6,237.6 759.1,270.5 760.5,250.6 762.0,239.4 763.4,286.8 764.9,279.4 766.3,251.7 767.8,236.1 769.2,274.5 770.7,268.6 772.1,240.5 773.6,252.3 775.0,272.7 776.5,228.5 777.9,251.7 779.4,267.5 780.8,260.6 782.2,276.3 783.7,238.7 785.1,258.7 786.6,257.8 788.0,265.7 789.5,258.6 790.9,240.8 792.4,243.6 793.8,248.2 795.3,270.3 796.7,260.6 798.2,254.0 799.6,274.0 801.1,242.4 802.5,283.0 804.0,246.2 805.4,274.5 806.9,253.7 808.3,292.3 809.8,271.4 811.2,228.4 812.7,269.9 814.1,268.5 815.6,239.1 817.0,252.7 818.4,278.4 819.9,249.4 821.3,242.2 822.8,256.1 824.2,230.4 825.7,274.5 827.1,264.6 828.6,242.9 830.0,256.5 831.5,268.6 832.9,262.8 834.4,234.1 835.8,281.7 837.3,265.5 838.7,229.2 840.2,267.8 841.6,232.0 843.1,239.6 844.5,262.0 846.0,288.4 847.4,261.5 848.9,296.8 850.3,297.2 851.7,257.3 853.2,236.5 854.6,219.5 856.1,271.6 857.5,211.0 859.0,219.5 860.4,275.3 861.9,249.0 863.3,263.0 864.8,243.8 866.2,236.5 867.7,255.6 869.1,250.2 870.6,225.7 872.0,258.0 873.5,240.9 874.9,245.1 876.4,267.8 877.8,255.3 879.3,275.8 880.7,249.2 882.2,247.4 883.6,281.6 885.1,278.4 886.5,252.4 887.9,295.9 889.4,296.8 890.8,256.6 892.3,254.5 893.7,249.5 895.2,266.7 896.6,239.2 898.1,258.8 899.5,251.4 901.0,268.8 902.4,253.8 903.9,287.1 905.3,258.8 906.8,242.8 908.2,258.4 909.7,265.0 911.1,251.7 912.6,243.4 914.0,246.2 915.5,263.1 916.9,245.9 918.4,231.2 919.8,251.3 921.2,251.6 922.7,264.3 924.1,264.0 925.6,252.6 927.0,249.1 928.5,285.0 929.9,236.7 931.4,267.4 932.8,242.5 934.3,239.6 935.7,245.8 937.2,273.1 938.6,235.6 940.1,281.3 941.5,261.8 943.0,279.7 944.4,243.5 945.9,281.8 947.3,267.3 948.8,236.5 950.2,261.1 951.7,256.7 953.1,247.7 954.6,240.9 956.0,257.4"/>
<line x1="750" y1="70" x2="780" y2="70" stroke="#dc2626" stroke-width="2.5"/>
<text x="786" y="74" font-family="Times New Roman" font-size="16">No Bandit</text>
<polyline fill="none" stroke="#059669" stroke-width="2.1" points="80.0,248.5 81.4,262.3 82.9,227.6 84.3,239.3 85.8,262.0 87.2,280.6 88.7,246.8 90.1,267.4 91.6,244.6 93.0,246.8 94.5,254.1 95.9,261.2 97.4,253.5 98.8,294.1 100.3,243.0 101.7,252.6 103.2,260.0 104.6,255.8 106.1,277.8 107.5,272.0 109.0,257.8 110.4,248.4 111.9,270.9 113.3,249.2 114.8,249.9 116.2,257.6 117.6,239.0 119.1,267.0 120.5,258.6 122.0,256.6 123.4,283.2 124.9,237.3 126.3,229.3 127.8,251.2 129.2,245.5 130.7,227.9 132.1,245.0 133.6,260.3 135.0,270.8 136.5,245.0 137.9,279.4 139.4,253.2 140.8,221.1 142.3,261.4 143.7,258.8 145.2,267.2 146.6,249.5 148.1,263.5 149.5,247.8 150.9,242.9 152.4,256.7 153.8,259.5 155.3,284.9 156.7,256.1 158.2,221.8 159.6,275.3 161.1,267.6 162.5,262.3 164.0,245.0 165.4,259.7 166.9,240.4 168.3,261.8 169.8,226.6 171.2,249.9 172.7,239.2 174.1,241.2 175.6,285.0 177.0,255.6 178.5,254.1 179.9,275.4 181.4,250.4 182.8,252.9 184.3,260.4 185.7,249.6 187.1,273.9 188.6,304.8 190.0,244.0 191.5,252.8 192.9,216.2 194.4,279.9 195.8,235.9 197.3,251.7 198.7,264.3 200.2,215.0 201.6,234.8 203.1,242.0 204.5,235.5 206.0,262.3 207.4,248.5 208.9,238.5 210.3,254.5 211.8,254.3 213.2,232.5 214.7,247.4 216.1,270.7 217.6,243.2 219.0,263.6 220.4,252.5 221.9,245.7 223.3,252.3 224.8,262.0 226.2,259.6 227.7,235.7 229.1,246.9 230.6,291.8 232.0,242.5 233.5,216.0 234.9,219.1 236.4,255.9 237.8,256.5 239.3,248.3 240.7,248.7 242.2,230.0 243.6,254.4 245.1,233.8 246.5,220.5 248.0,218.0 249.4,226.4 250.9,211.8 252.3,264.3 253.8,236.6 255.2,266.9 256.6,265.8 258.1,248.5 259.5,263.2 261.0,229.6 262.4,246.8 263.9,231.8 265.3,260.1 266.8,248.6 268.2,236.3 269.7,287.4 271.1,276.0 272.6,265.5 274.0,253.1 275.5,291.6 276.9,258.4 278.4,255.8 279.8,263.1 281.3,271.0 282.7,236.6 284.2,242.5 285.6,263.0 287.1,279.3 288.5,280.4 290.0,240.7 291.4,230.5 292.8,257.8 294.3,247.9 295.7,272.6 297.2,239.4 298.6,254.2 300.1,261.1 301.5,222.3 303.0,268.0 304.4,259.2 305.9,259.3 307.3,271.3 308.8,226.0 310.2,280.3 311.7,253.2 313.1,245.0 314.6,245.9 316.0,274.0 317.5,260.8 318.9,227.1 320.4,226.6 321.8,252.6 323.3,226.5 324.7,222.4 326.1,266.0 327.6,260.8 329.0,244.6 330.5,254.7 331.9,258.4 333.4,229.2 334.8,277.9 336.3,238.5 337.7,235.5 339.2,239.2 340.6,237.7 342.1,223.5 343.5,230.6 345.0,263.3 346.4,287.6 347.9,266.0 349.3,236.4 350.8,282.6 352.2,254.2 353.7,254.3 355.1,248.3 356.6,258.1 358.0,240.4 359.5,228.6 360.9,261.8 362.3,228.3 363.8,269.7 365.2,245.0 366.7,239.3 368.1,264.2 369.6,232.6 371.0,248.3 372.5,267.1 373.9,245.0 375.4,238.5 376.8,253.6 378.3,266.2 379.7,272.1 381.2,277.3 382.6,251.1 384.1,254.5 385.5,233.3 387.0,231.7 388.4,260.1 389.9,271.8 391.3,245.4 392.8,221.5 394.2,264.8 395.6,273.7 397.1,262.0 398.5,233.2 400.0,236.2 401.4,257.3 402.9,255.6 404.3,235.6 405.8,242.7 407.2,267.0 408.7,250.0 410.1,283.8 411.6,279.6 413.0,247.5 414.5,234.3 415.9,271.0 417.4,261.0 418.8,248.9 420.3,214.4 421.7,270.4 423.2,270.2 424.6,241.3 426.1,242.8 427.5,261.0 429.0,226.3 430.4,237.5 431.8,214.0 433.3,242.7 434.7,248.2 436.2,259.9 437.6,256.9 439.1,248.9 440.5,248.2 442.0,228.8 443.4,261.7 444.9,300.9 446.3,240.1 447.8,256.0 449.2,244.6 450.7,245.3 452.1,214.5 453.6,253.0 455.0,223.5 456.5,260.3 457.9,294.6 459.4,240.9 460.8,248.6 462.3,233.8 463.7,240.5 465.2,259.5 466.6,236.6 468.0,241.9 469.5,261.1 470.9,291.1 472.4,263.3 473.8,270.7 475.3,252.3 476.7,244.5 478.2,272.8 479.6,233.8 481.1,301.5 482.5,244.9 484.0,246.6 485.4,243.7 486.9,256.1 488.3,226.0 489.8,254.7 491.2,278.0 492.7,260.6 494.1,265.8 495.6,240.7 497.0,211.1 498.5,222.1 499.9,230.8 501.3,290.3 502.8,230.7 504.2,280.8 505.7,252.7 507.1,243.2 508.6,281.0 510.0,246.1 511.5,234.8 512.9,222.3 514.4,262.0 515.8,247.8 517.3,251.8 518.7,253.9 520.2,246.4 521.6,234.9 523.1,243.6 524.5,250.5 526.0,274.0 527.4,290.7 528.9,243.7 530.3,243.5 531.8,241.3 533.2,253.3 534.7,249.3 536.1,249.4 537.5,244.1 539.0,233.8 540.4,246.1 541.9,243.6 543.3,240.8 544.8,246.4 546.2,242.6 547.7,237.4 549.1,274.1 550.6,253.8 552.0,246.9 553.5,265.3 554.9,275.0 556.4,287.2 557.8,284.8 559.3,262.5 560.7,264.2 562.2,264.0 563.6,267.3 565.1,274.5 566.5,259.6 568.0,249.5 569.4,258.9 570.8,261.4 572.3,256.1 573.7,247.3 575.2,236.5 576.6,246.7 578.1,249.2 579.5,246.3 581.0,246.4 582.4,270.9 583.9,235.0 585.3,298.3 586.8,256.6 588.2,248.7 589.7,267.1 591.1,288.4 592.6,264.4 594.0,222.8 595.5,252.8 596.9,243.5 598.4,251.9 599.8,257.8 601.3,252.1 602.7,281.8 604.2,242.5 605.6,245.1 607.0,231.6 608.5,244.4 609.9,262.7 611.4,253.7 612.8,261.6 614.3,284.4 615.7,232.3 617.2,255.2 618.6,252.8 620.1,258.8 621.5,232.8 623.0,233.8 624.4,282.8 625.9,263.0 627.3,247.3 628.8,247.3 630.2,226.6 631.7,262.0 633.1,253.0 634.6,245.8 636.0,243.3 637.5,257.7 638.9,245.5 640.4,258.1 641.8,253.7 643.2,280.7 644.7,289.0 646.1,261.1 647.6,246.8 649.0,268.3 650.5,287.2 651.9,241.2 653.4,265.5 654.8,257.4 656.3,223.9 657.7,293.4 659.2,263.6 660.6,218.0 662.1,256.0 663.5,266.4 665.0,280.5 666.4,247.3 667.9,244.2 669.3,234.4 670.8,239.0 672.2,254.9 673.7,271.7 675.1,249.2 676.5,244.1 678.0,248.6 679.4,279.9 680.9,246.8 682.3,249.2 683.8,230.7 685.2,239.8 686.7,223.6 688.1,247.3 689.6,235.3 691.0,219.6 692.5,263.8 693.9,243.5 695.4,265.1 696.8,256.3 698.3,222.6 699.7,250.1 701.2,253.7 702.6,228.7 704.1,230.4 705.5,253.3 707.0,286.8 708.4,264.3 709.9,223.1 711.3,268.0 712.7,266.2 714.2,253.1 715.6,281.7 717.1,225.1 718.5,268.3 720.0,236.2 721.4,231.7 722.9,232.2 724.3,273.8 725.8,231.6 727.2,272.7 728.7,266.1 730.1,243.0 731.6,265.4 733.0,233.7 734.5,228.4 735.9,264.1 737.4,256.3 738.8,296.7 740.3,270.3 741.7,251.3 743.2,262.5 744.6,265.6 746.0,256.3 747.5,254.0 748.9,284.8 750.4,258.9 751.8,254.4 753.3,242.9 754.7,236.7 756.2,240.6 757.6,242.6 759.1,228.1 760.5,244.2 762.0,277.3 763.4,244.0 764.9,251.6 766.3,262.8 767.8,286.6 769.2,248.4 770.7,236.8 772.1,258.5 773.6,224.2 775.0,248.7 776.5,257.8 777.9,256.9 779.4,257.6 780.8,264.1 782.2,266.0 783.7,245.7 785.1,243.4 786.6,232.2 788.0,228.7 789.5,253.3 790.9,272.4 792.4,261.1 793.8,274.4 795.3,221.4 796.7,245.9 798.2,269.5 799.6,279.4 801.1,252.7 802.5,285.0 804.0,238.3 805.4,261.1 806.9,259.6 808.3,225.1 809.8,272.7 811.2,248.4 812.7,265.2 814.1,272.9 815.6,242.4 817.0,263.5 818.4,254.1 819.9,252.9 821.3,256.3 822.8,260.6 824.2,249.1 825.7,207.6 827.1,238.6 828.6,258.6 830.0,259.6 831.5,270.1 832.9,235.0 834.4,269.2 835.8,262.9 837.3,269.0 838.7,254.2 840.2,255.8 841.6,249.1 843.1,243.7 844.5,248.6 846.0,242.2 847.4,231.6 848.9,229.8 850.3,244.2 851.7,279.5 853.2,242.9 854.6,237.2 856.1,234.9 857.5,253.9 859.0,265.0 860.4,254.5 861.9,221.7 863.3,251.2 864.8,256.2 866.2,238.9 867.7,247.4 869.1,242.0 870.6,238.9 872.0,278.0 873.5,257.9 874.9,263.6 876.4,269.0 877.8,238.0 879.3,225.9 880.7,239.8 882.2,246.5 883.6,229.9 885.1,262.9 886.5,292.8 887.9,242.6 889.4,276.6 890.8,249.9 892.3,228.0 893.7,255.5 895.2,253.1 896.6,265.3 898.1,268.1 899.5,246.0 901.0,267.9 902.4,257.0 903.9,254.0 905.3,243.4 906.8,272.1 908.2,242.9 909.7,251.9 911.1,272.9 912.6,245.2 914.0,223.6 915.5,255.8 916.9,260.1 918.4,235.3 919.8,236.4 921.2,241.6 922.7,249.7 924.1,237.0 925.6,246.6 927.0,250.3 928.5,277.1 929.9,244.9 931.4,269.5 932.8,263.2 934.3,228.3 935.7,261.3 937.2,235.7 938.6,246.3 940.1,230.5 941.5,249.9 943.0,238.6 944.4,263.1 945.9,250.8 947.3,248.8 948.8,247.3 950.2,228.7 951.7,259.4 953.1,265.5 954.6,239.1 956.0,275.8"/>
<line x1="750" y1="88" x2="780" y2="88" stroke="#059669" stroke-width="2.5"/>
<text x="786" y="92" font-family="Times New Roman" font-size="16">Shortest-Hop Routing</text>
<polyline fill="none" stroke="#7c3aed" stroke-width="2.1" points="80.0,163.8 81.4,172.3 82.9,145.5 84.3,160.1 85.8,205.5 87.2,205.0 88.7,131.5 90.1,157.2 91.6,163.3 93.0,138.5 94.5,151.4 95.9,139.2 97.4,135.1 98.8,226.0 100.3,99.7 101.7,225.6 103.2,169.1 104.6,220.4 106.1,200.7 107.5,192.2 109.0,161.5 110.4,230.5 111.9,157.6 113.3,234.8 114.8,177.7 116.2,190.1 117.6,157.4 119.1,166.3 120.5,135.1 122.0,147.8 123.4,106.3 124.9,97.0 126.3,229.1 127.8,169.8 129.2,199.7 130.7,125.0 132.1,157.2 133.6,189.9 135.0,153.7 136.5,147.8 137.9,171.1 139.4,148.6 140.8,178.8 142.3,125.5 143.7,121.6 145.2,208.5 146.6,142.8 148.1,212.1 149.5,182.0 150.9,152.5 152.4,175.6 153.8,128.1 155.3,238.7 156.7,144.1 158.2,181.4 159.6,176.2 161.1,178.9 162.5,192.9 164.0,148.7 165.4,184.3 166.9,216.5 168.3,136.5 169.8,139.3 171.2,190.8 172.7,133.6 174.1,155.0 175.6,181.5 177.0,145.5 178.5,188.8 179.9,203.1 181.4,167.2 182.8,183.1 184.3,179.4 185.7,202.7 187.1,178.9 188.6,168.9 190.0,176.3 191.5,200.2 192.9,217.5 194.4,219.8 195.8,162.7 197.3,160.5 198.7,191.8 200.2,153.9 201.6,135.6 203.1,175.1 204.5,133.8 206.0,183.2 207.4,153.5 208.9,184.1 210.3,119.2 211.8,138.4 213.2,116.7 214.7,104.2 216.1,145.4 217.6,88.9 219.0,214.5 220.4,181.2 221.9,146.1 223.3,134.1 224.8,121.1 226.2,151.2 227.7,129.1 229.1,191.1 230.6,207.3 232.0,177.4 233.5,156.3 234.9,170.0 236.4,120.9 237.8,188.3 239.3,188.2 240.7,171.0 242.2,158.5 243.6,188.3 245.1,129.1 246.5,194.3 248.0,133.3 249.4,166.7 250.9,237.9 252.3,152.2 253.8,205.0 255.2,125.6 256.6,158.5 258.1,145.2 259.5,218.6 261.0,192.1 262.4,186.3 263.9,206.7 265.3,152.9 266.8,164.5 268.2,140.4 269.7,169.1 271.1,164.9 272.6,234.2 274.0,199.7 275.5,191.4 276.9,183.8 278.4,131.3 279.8,245.7 281.3,163.0 282.7,140.4 284.2,176.9 285.6,142.5 287.1,193.0 288.5,145.0 290.0,153.2 291.4,173.4 292.8,205.2 294.3,145.0 295.7,162.7 297.2,191.2 298.6,184.8 300.1,244.6 301.5,156.3 303.0,196.5 304.4,176.2 305.9,130.3 307.3,117.2 308.8,205.1 310.2,154.1 311.7,183.1 313.1,118.2 314.6,131.8 316.0,158.4 317.5,204.7 318.9,135.1 320.4,112.3 321.8,160.7 323.3,139.7 324.7,165.1 326.1,181.2 327.6,185.9 329.0,141.8 330.5,110.9 331.9,159.3 333.4,153.2 334.8,187.2 336.3,166.1 337.7,201.1 339.2,174.2 340.6,141.9 342.1,159.1 343.5,179.3 345.0,152.8 346.4,104.7 347.9,150.2 349.3,161.9 350.8,223.9 352.2,104.1 353.7,166.1 355.1,194.4 356.6,136.2 358.0,181.5 359.5,113.8 360.9,162.6 362.3,165.7 363.8,176.0 365.2,91.6 366.7,89.8 368.1,211.8 369.6,105.7 371.0,144.9 372.5,135.6 373.9,179.1 375.4,97.3 376.8,121.6 378.3,198.0 379.7,135.4 381.2,163.1 382.6,202.0 384.1,180.9 385.5,146.4 387.0,155.4 388.4,129.0 389.9,151.7 391.3,215.3 392.8,115.8 394.2,139.1 395.6,183.9 397.1,196.8 398.5,194.3 400.0,163.4 401.4,156.1 402.9,107.5 404.3,113.2 405.8,145.5 407.2,146.4 408.7,195.9 410.1,164.2 411.6,183.5 413.0,181.1 414.5,174.2 415.9,169.5 417.4,137.6 418.8,184.2 420.3,122.4 421.7,206.4 423.2,154.2 424.6,139.3 426.1,180.3 427.5,175.3 429.0,175.7 430.4,173.5 431.8,183.2 433.3,185.9 434.7,173.6 436.2,172.3 437.6,116.9 439.1,180.2 440.5,178.3 442.0,173.4 443.4,143.4 444.9,134.2 446.3,143.2 447.8,194.1 449.2,158.6 450.7,152.1 452.1,150.6 453.6,177.0 455.0,155.6 456.5,176.4 457.9,182.9 459.4,166.7 460.8,177.6 462.3,186.4 463.7,221.3 465.2,197.0 466.6,140.8 468.0,157.6 469.5,132.9 470.9,130.2 472.4,198.0 473.8,173.9 475.3,130.1 476.7,153.2 478.2,163.1 479.6,134.4 481.1,182.6 482.5,156.6 484.0,192.2 485.4,215.2 486.9,155.2 488.3,195.3 489.8,147.5 491.2,190.6 492.7,170.1 494.1,163.4 495.6,128.9 497.0,130.6 498.5,166.2 499.9,155.0 501.3,183.2 502.8,158.6 504.2,178.3 505.7,192.4 507.1,132.6 508.6,139.4 510.0,156.6 511.5,144.1 512.9,154.5 514.4,132.6 515.8,160.3 517.3,124.0 518.7,163.8 520.2,178.0 521.6,110.4 523.1,152.7 524.5,190.3 526.0,155.4 527.4,85.6 528.9,202.3 530.3,75.9 531.8,179.9 533.2,188.1 534.7,106.6 536.1,192.6 537.5,218.7 539.0,145.1 540.4,173.1 541.9,167.6 543.3,160.4 544.8,117.2 546.2,139.7 547.7,148.8 549.1,182.1 550.6,108.3 552.0,106.2 553.5,154.4 554.9,138.5 556.4,105.0 557.8,154.3 559.3,144.9 560.7,164.1 562.2,145.9 563.6,178.8 565.1,183.8 566.5,188.0 568.0,201.1 569.4,180.1 570.8,166.8 572.3,172.6 573.7,159.0 575.2,148.5 576.6,231.9 578.1,219.3 579.5,190.1 581.0,177.6 582.4,151.3 583.9,192.7 585.3,164.5 586.8,188.2 588.2,126.2 589.7,179.2 591.1,155.4 592.6,176.7 594.0,146.9 595.5,217.1 596.9,106.8 598.4,138.1 599.8,153.0 601.3,176.6 602.7,142.0 604.2,183.7 605.6,234.1 607.0,198.4 608.5,107.5 609.9,181.5 611.4,192.8 612.8,190.5 614.3,150.2 615.7,154.7 617.2,118.0 618.6,154.8 620.1,188.8 621.5,196.2 623.0,171.3 624.4,225.6 625.9,139.2 627.3,142.3 628.8,142.4 630.2,168.8 631.7,157.4 633.1,161.2 634.6,179.1 636.0,133.6 637.5,211.4 638.9,135.4 640.4,167.4 641.8,123.1 643.2,165.9 644.7,146.9 646.1,155.4 647.6,190.2 649.0,185.6 650.5,142.0 651.9,131.2 653.4,168.7 654.8,193.2 656.3,135.2 657.7,136.1 659.2,227.4 660.6,162.0 662.1,167.6 663.5,206.3 665.0,125.7 666.4,179.1 667.9,166.6 669.3,206.9 670.8,198.9 672.2,166.9 673.7,107.2 675.1,189.2 676.5,140.5 678.0,151.4 679.4,170.1 680.9,132.6 682.3,154.4 683.8,124.5 685.2,195.2 686.7,128.6 688.1,184.4 689.6,144.9 691.0,142.0 692.5,147.7 693.9,150.9 695.4,167.9 696.8,137.8 698.3,171.9 699.7,190.4 701.2,144.9 702.6,193.4 704.1,185.7 705.5,176.4 707.0,167.8 708.4,201.8 709.9,149.2 711.3,138.3 712.7,187.0 714.2,203.0 715.6,180.8 717.1,145.6 718.5,191.3 720.0,116.6 721.4,179.0 722.9,149.7 724.3,201.7 725.8,149.8 727.2,177.8 728.7,120.0 730.1,140.3 731.6,143.0 733.0,159.7 734.5,181.9 735.9,132.9 737.4,176.0 738.8,124.4 740.3,126.4 741.7,179.7 743.2,174.9 744.6,136.9 746.0,136.8 747.5,169.7 748.9,135.1 750.4,155.9 751.8,127.3 753.3,123.8 754.7,159.1 756.2,155.9 757.6,142.4 759.1,152.3 760.5,146.6 762.0,193.3 763.4,191.7 764.9,244.5 766.3,158.4 767.8,164.7 769.2,158.6 770.7,153.1 772.1,164.9 773.6,172.1 775.0,176.9 776.5,202.1 777.9,142.0 779.4,168.3 780.8,190.3 782.2,242.4 783.7,198.4 785.1,244.4 786.6,180.3 788.0,186.7 789.5,176.8 790.9,93.5 792.4,137.0 793.8,195.2 795.3,103.6 796.7,117.7 798.2,166.5 799.6,134.7 801.1,160.6 802.5,159.2 804.0,169.3 805.4,121.6 806.9,184.2 808.3,166.1 809.8,153.6 811.2,157.1 812.7,128.9 814.1,152.0 815.6,223.5 817.0,196.7 818.4,131.1 819.9,154.5 821.3,186.9 822.8,141.0 824.2,166.3 825.7,130.7 827.1,179.6 828.6,158.9 830.0,130.1 831.5,205.5 832.9,158.7 834.4,178.4 835.8,192.2 837.3,207.7 838.7,176.8 840.2,162.8 841.6,149.9 843.1,141.8 844.5,174.6 846.0,141.6 847.4,152.5 848.9,131.6 850.3,193.3 851.7,224.6 853.2,174.5 854.6,174.4 856.1,185.4 857.5,146.4 859.0,113.1 860.4,178.8 861.9,118.0 863.3,90.6 864.8,131.0 866.2,155.7 867.7,150.6 869.1,124.0 870.6,202.3 872.0,173.5 873.5,184.2 874.9,191.9 876.4,149.7 877.8,153.9 879.3,180.7 880.7,174.0 882.2,172.4 883.6,137.2 885.1,251.3 886.5,115.9 887.9,145.4 889.4,146.7 890.8,219.3 892.3,81.1 893.7,149.0 895.2,106.0 896.6,80.6 898.1,141.1 899.5,147.2 901.0,149.6 902.4,147.4 903.9,92.1 905.3,163.1 906.8,110.7 908.2,115.9 909.7,179.9 911.1,127.3 912.6,144.8 914.0,99.4 915.5,101.4 916.9,98.9 918.4,99.7 919.8,77.3 921.2,118.3 922.7,155.8 924.1,212.1 925.6,179.3 927.0,154.2 928.5,181.0 929.9,152.0 931.4,141.6 932.8,109.0 934.3,136.3 935.7,105.8 937.2,136.0 938.6,138.1 940.1,88.3 941.5,118.7 943.0,134.3 944.4,117.8 945.9,144.3 947.3,124.6 948.8,84.6 950.2,122.4 951.7,177.2 953.1,98.7 954.6,227.4 956.0,121.5"/>
<line x1="750" y1="106" x2="780" y2="106" stroke="#7c3aed" stroke-width="2.5"/>
<text x="786" y="110" font-family="Times New Roman" font-size="16">Nearest Replica</text>
<polyline fill="none" stroke="#ea580c" stroke-width="2.1" points="80.0,223.5 81.4,236.8 82.9,165.3 84.3,212.4 85.8,262.1 87.2,259.7 88.7,214.6 90.1,242.3 91.6,208.4 93.0,225.5 94.5,234.5 95.9,226.8 97.4,204.7 98.8,262.8 100.3,223.3 101.7,243.8 103.2,236.2 104.6,254.7 106.1,246.6 107.5,251.0 109.0,220.2 110.4,259.3 111.9,239.2 113.3,229.2 114.8,229.5 116.2,225.0 117.6,211.9 119.1,243.5 120.5,215.4 122.0,200.9 123.4,213.0 124.9,171.9 126.3,246.9 127.8,228.8 129.2,215.2 130.7,173.1 132.1,215.9 133.6,227.8 135.0,210.5 136.5,205.9 137.9,215.4 139.4,163.7 140.8,218.0 142.3,209.7 143.7,187.8 145.2,255.0 146.6,195.9 148.1,256.2 149.5,238.6 150.9,178.1 152.4,210.2 153.8,193.6 155.3,257.0 156.7,183.3 158.2,239.2 159.6,217.5 161.1,213.8 162.5,224.3 164.0,237.4 165.4,244.2 166.9,239.8 168.3,191.0 169.8,198.8 171.2,232.5 172.7,202.9 174.1,231.9 175.6,281.8 177.0,191.3 178.5,277.7 179.9,210.7 181.4,176.5 182.8,216.2 184.3,266.2 185.7,213.8 187.1,233.4 188.6,216.4 190.0,235.5 191.5,188.2 192.9,253.3 194.4,255.5 195.8,198.1 197.3,197.3 198.7,253.9 200.2,246.7 201.6,195.9 203.1,266.0 204.5,225.8 206.0,229.9 207.4,224.6 208.9,259.5 210.3,226.5 211.8,243.2 213.2,209.2 214.7,213.5 216.1,237.7 217.6,233.5 219.0,231.0 220.4,230.0 221.9,185.0 223.3,208.6 224.8,191.6 226.2,214.1 227.7,188.2 229.1,222.0 230.6,236.1 232.0,255.2 233.5,219.6 234.9,248.4 236.4,205.3 237.8,207.0 239.3,208.9 240.7,207.0 242.2,214.4 243.6,224.4 245.1,193.8 246.5,233.3 248.0,203.8 249.4,232.7 250.9,197.6 252.3,234.8 253.8,208.4 255.2,183.3 256.6,213.0 258.1,223.4 259.5,255.4 261.0,223.6 262.4,203.7 263.9,223.1 265.3,177.8 266.8,226.8 268.2,208.1 269.7,215.7 271.1,244.7 272.6,244.5 274.0,264.0 275.5,220.4 276.9,247.4 278.4,184.2 279.8,261.9 281.3,199.0 282.7,195.6 284.2,221.8 285.6,207.5 287.1,226.9 288.5,204.7 290.0,202.4 291.4,236.3 292.8,229.4 294.3,233.9 295.7,217.0 297.2,196.0 298.6,211.3 300.1,225.8 301.5,216.7 303.0,247.8 304.4,280.5 305.9,196.9 307.3,168.6 308.8,267.5 310.2,190.6 311.7,207.8 313.1,177.1 314.6,219.3 316.0,222.8 317.5,243.8 318.9,236.6 320.4,209.1 321.8,247.9 323.3,218.2 324.7,226.4 326.1,212.5 327.6,181.6 329.0,238.2 330.5,204.7 331.9,232.8 333.4,238.4 334.8,236.4 336.3,219.2 337.7,232.9 339.2,216.1 340.6,222.6 342.1,225.7 343.5,207.5 345.0,204.0 346.4,205.1 347.9,215.7 349.3,216.4 350.8,229.2 352.2,226.1 353.7,215.1 355.1,220.4 356.6,223.0 358.0,223.9 359.5,176.3 360.9,215.5 362.3,216.5 363.8,234.2 365.2,244.1 366.7,171.6 368.1,245.0 369.6,203.7 371.0,223.2 372.5,206.9 373.9,252.5 375.4,212.1 376.8,214.4 378.3,254.7 379.7,186.9 381.2,197.3 382.6,222.5 384.1,220.1 385.5,205.8 387.0,206.7 388.4,195.1 389.9,209.6 391.3,194.5 392.8,182.6 394.2,217.5 395.6,238.3 397.1,221.6 398.5,242.5 400.0,240.8 401.4,213.1 402.9,227.8 404.3,197.3 405.8,232.4 407.2,199.5 408.7,253.2 410.1,228.4 411.6,266.2 413.0,234.7 414.5,200.8 415.9,211.4 417.4,214.6 418.8,243.7 420.3,216.6 421.7,243.3 423.2,191.5 424.6,223.8 426.1,217.7 427.5,233.2 429.0,238.1 430.4,232.3 431.8,245.0 433.3,226.6 434.7,250.7 436.2,215.6 437.6,184.5 439.1,206.5 440.5,196.8 442.0,217.6 443.4,223.1 444.9,228.7 446.3,216.6 447.8,221.7 449.2,212.3 450.7,218.7 452.1,233.2 453.6,217.4 455.0,200.5 456.5,186.2 457.9,191.0 459.4,237.0 460.8,228.9 462.3,235.4 463.7,226.0 465.2,248.7 466.6,229.9 468.0,248.6 469.5,203.1 470.9,231.5 472.4,245.6 473.8,229.9 475.3,226.9 476.7,208.4 478.2,188.2 479.6,209.3 481.1,201.4 482.5,210.9 484.0,250.9 485.4,269.8 486.9,204.7 488.3,233.0 489.8,200.6 491.2,239.8 492.7,200.3 494.1,229.9 495.6,199.8 497.0,186.9 498.5,245.8 499.9,220.5 501.3,249.7 502.8,213.5 504.2,225.2 505.7,225.2 507.1,189.2 508.6,192.1 510.0,178.6 511.5,170.5 512.9,211.2 514.4,162.5 515.8,234.7 517.3,215.4 518.7,205.6 520.2,213.3 521.6,193.4 523.1,247.2 524.5,219.6 526.0,216.7 527.4,190.1 528.9,216.9 530.3,254.6 531.8,234.3 533.2,278.5 534.7,231.6 536.1,219.8 537.5,218.0 539.0,211.1 540.4,211.2 541.9,229.1 543.3,226.5 544.8,226.0 546.2,253.4 547.7,198.3 549.1,237.5 550.6,226.5 552.0,196.8 553.5,253.3 554.9,205.6 556.4,208.5 557.8,222.6 559.3,207.0 560.7,209.6 562.2,229.5 563.6,238.4 565.1,227.4 566.5,209.9 568.0,240.4 569.4,253.6 570.8,246.7 572.3,235.2 573.7,184.7 575.2,200.4 576.6,229.9 578.1,265.8 579.5,216.9 581.0,268.7 582.4,213.5 583.9,216.9 585.3,203.0 586.8,229.5 588.2,202.1 589.7,260.1 591.1,219.7 592.6,222.4 594.0,205.1 595.5,252.9 596.9,196.4 598.4,191.2 599.8,217.9 601.3,263.9 602.7,206.8 604.2,236.6 605.6,239.5 607.0,258.4 608.5,207.1 609.9,259.3 611.4,243.7 612.8,228.4 614.3,197.9 615.7,205.4 617.2,193.6 618.6,219.9 620.1,193.5 621.5,257.5 623.0,196.3 624.4,287.5 625.9,203.8 627.3,233.3 628.8,207.2 630.2,241.9 631.7,206.3 633.1,212.8 634.6,207.8 636.0,223.4 637.5,223.9 638.9,199.7 640.4,179.5 641.8,221.2 643.2,201.2 644.7,232.0 646.1,187.6 647.6,228.3 649.0,236.0 650.5,190.1 651.9,227.9 653.4,231.9 654.8,232.9 656.3,199.5 657.7,201.9 659.2,265.6 660.6,177.9 662.1,241.6 663.5,227.3 665.0,215.1 666.4,230.7 667.9,203.1 669.3,225.0 670.8,252.3 672.2,206.9 673.7,202.6 675.1,234.6 676.5,222.7 678.0,237.8 679.4,238.1 680.9,188.7 682.3,207.0 683.8,241.6 685.2,216.6 686.7,201.8 688.1,217.8 689.6,214.9 691.0,243.0 692.5,224.3 693.9,205.6 695.4,214.9 696.8,185.8 698.3,241.3 699.7,206.5 701.2,188.0 702.6,220.1 704.1,231.2 705.5,238.8 707.0,223.1 708.4,242.0 709.9,190.0 711.3,208.4 712.7,252.2 714.2,238.0 715.6,223.1 717.1,249.4 718.5,237.1 720.0,205.4 721.4,200.0 722.9,236.9 724.3,230.0 725.8,209.4 727.2,232.7 728.7,223.9 730.1,216.0 731.6,257.8 733.0,213.8 734.5,234.9 735.9,198.2 737.4,231.2 738.8,245.5 740.3,235.1 741.7,229.6 743.2,232.0 744.6,210.8 746.0,192.6 747.5,196.3 748.9,188.0 750.4,197.5 751.8,206.0 753.3,200.8 754.7,217.3 756.2,220.0 757.6,203.9 759.1,181.7 760.5,210.0 762.0,235.7 763.4,252.5 764.9,283.0 766.3,211.7 767.8,216.2 769.2,193.8 770.7,230.0 772.1,230.4 773.6,242.8 775.0,224.5 776.5,246.6 777.9,176.2 779.4,225.4 780.8,240.7 782.2,247.1 783.7,215.3 785.1,266.0 786.6,268.4 788.0,238.9 789.5,229.0 790.9,225.9 792.4,229.6 793.8,241.0 795.3,214.9 796.7,238.3 798.2,229.3 799.6,218.1 801.1,234.8 802.5,220.6 804.0,211.4 805.4,197.8 806.9,211.9 808.3,234.3 809.8,197.0 811.2,245.0 812.7,211.0 814.1,201.8 815.6,281.7 817.0,216.3 818.4,209.1 819.9,204.1 821.3,206.6 822.8,218.0 824.2,187.8 825.7,192.7 827.1,229.3 828.6,217.8 830.0,214.4 831.5,255.4 832.9,241.8 834.4,235.4 835.8,226.3 837.3,231.1 838.7,231.2 840.2,261.9 841.6,204.8 843.1,209.6 844.5,217.5 846.0,216.0 847.4,226.1 848.9,199.1 850.3,190.7 851.7,259.8 853.2,185.6 854.6,203.9 856.1,263.6 857.5,182.5 859.0,195.8 860.4,239.7 861.9,230.5 863.3,185.6 864.8,200.9 866.2,251.0 867.7,238.6 869.1,205.9 870.6,219.3 872.0,216.6 873.5,242.3 874.9,210.5 876.4,229.0 877.8,207.0 879.3,238.8 880.7,220.9 882.2,237.0 883.6,200.4 885.1,267.3 886.5,217.7 887.9,234.9 889.4,211.6 890.8,281.5 892.3,192.1 893.7,220.9 895.2,195.3 896.6,158.6 898.1,195.9 899.5,197.5 901.0,223.9 902.4,222.8 903.9,202.8 905.3,190.4 906.8,214.6 908.2,245.1 909.7,250.2 911.1,224.9 912.6,240.5 914.0,201.2 915.5,211.3 916.9,196.5 918.4,187.1 919.8,221.2 921.2,212.2 922.7,231.3 924.1,277.1 925.6,244.9 927.0,210.1 928.5,234.3 929.9,212.4 931.4,192.8 932.8,210.5 934.3,214.2 935.7,197.7 937.2,199.9 938.6,221.9 940.1,200.7 941.5,224.1 943.0,197.7 944.4,217.9 945.9,208.9 947.3,214.7 948.8,186.0 950.2,209.0 951.7,222.8 953.1,204.0 954.6,283.2 956.0,238.7"/>
<line x1="750" y1="124" x2="780" y2="124" stroke="#ea580c" stroke-width="2.5"/>
<text x="786" y="128" font-family="Times New Roman" font-size="16">Service Pressure</text>
<polyline fill="none" stroke="#0891b2" stroke-width="2.1" points="80.0,239.7 81.4,236.4 82.9,193.4 84.3,226.0 85.8,247.8 87.2,258.2 88.7,238.0 90.1,239.6 91.6,228.8 93.0,228.1 94.5,240.0 95.9,241.9 97.4,197.3 98.8,250.7 100.3,209.2 101.7,249.2 103.2,247.8 104.6,264.4 106.1,228.4 107.5,253.2 109.0,239.5 110.4,261.6 111.9,238.3 113.3,230.9 114.8,239.3 116.2,238.2 117.6,205.3 119.1,222.2 120.5,239.7 122.0,222.5 123.4,236.2 124.9,223.3 126.3,226.0 127.8,218.8 129.2,193.0 130.7,209.2 132.1,210.4 133.6,275.8 135.0,220.2 136.5,202.6 137.9,230.8 139.4,218.0 140.8,182.6 142.3,236.5 143.7,204.6 145.2,220.5 146.6,211.3 148.1,222.1 149.5,234.6 150.9,221.6 152.4,211.3 153.8,214.2 155.3,259.7 156.7,189.7 158.2,270.3 159.6,230.2 161.1,210.8 162.5,240.6 164.0,237.9 165.4,246.1 166.9,231.7 168.3,222.8 169.8,211.2 171.2,219.6 172.7,207.0 174.1,223.8 175.6,260.5 177.0,220.2 178.5,230.7 179.9,231.4 181.4,220.7 182.8,232.9 184.3,206.8 185.7,213.8 187.1,260.0 188.6,230.4 190.0,227.7 191.5,224.6 192.9,207.9 194.4,282.9 195.8,231.3 197.3,208.1 198.7,268.0 200.2,215.4 201.6,198.9 203.1,246.6 204.5,241.5 206.0,251.2 207.4,219.9 208.9,238.1 210.3,254.9 211.8,201.0 213.2,243.4 214.7,205.0 216.1,243.1 217.6,239.6 219.0,225.8 220.4,276.9 221.9,221.0 223.3,219.4 224.8,218.1 226.2,225.5 227.7,216.0 229.1,237.0 230.6,257.4 232.0,255.8 233.5,232.2 234.9,250.3 236.4,253.9 237.8,198.4 239.3,218.7 240.7,201.3 242.2,213.1 243.6,217.4 245.1,230.4 246.5,207.1 248.0,226.2 249.4,186.5 250.9,254.6 252.3,228.2 253.8,257.7 255.2,215.9 256.6,199.2 258.1,228.3 259.5,216.0 261.0,250.5 262.4,235.6 263.9,214.7 265.3,248.0 266.8,221.6 268.2,216.0 269.7,198.4 271.1,211.1 272.6,240.5 274.0,237.2 275.5,254.6 276.9,257.9 278.4,219.8 279.8,217.9 281.3,227.8 282.7,213.9 284.2,215.0 285.6,248.6 287.1,206.8 288.5,217.3 290.0,208.3 291.4,239.6 292.8,193.3 294.3,243.0 295.7,216.6 297.2,216.8 298.6,211.9 300.1,233.1 301.5,237.8 303.0,233.8 304.4,256.1 305.9,230.7 307.3,184.8 308.8,207.3 310.2,216.1 311.7,194.8 313.1,173.2 314.6,223.2 316.0,229.5 317.5,277.3 318.9,236.0 320.4,207.4 321.8,240.9 323.3,233.7 324.7,208.2 326.1,235.2 327.6,187.7 329.0,198.7 330.5,218.5 331.9,205.0 333.4,244.6 334.8,207.9 336.3,226.0 337.7,265.6 339.2,222.3 340.6,227.1 342.1,221.1 343.5,245.6 345.0,238.3 346.4,253.4 347.9,235.6 349.3,196.4 350.8,227.3 352.2,214.8 353.7,218.4 355.1,251.5 356.6,252.4 358.0,231.1 359.5,223.0 360.9,233.0 362.3,244.2 363.8,240.7 365.2,216.4 366.7,236.2 368.1,267.3 369.6,246.5 371.0,212.2 372.5,214.4 373.9,235.2 375.4,211.1 376.8,230.9 378.3,221.2 379.7,198.6 381.2,201.1 382.6,250.9 384.1,228.8 385.5,212.9 387.0,212.0 388.4,221.3 389.9,215.1 391.3,253.7 392.8,190.4 394.2,232.1 395.6,263.3 397.1,216.1 398.5,234.5 400.0,218.8 401.4,245.0 402.9,239.9 404.3,207.6 405.8,263.8 407.2,221.4 408.7,249.2 410.1,247.8 411.6,232.3 413.0,246.8 414.5,191.4 415.9,222.4 417.4,215.5 418.8,226.7 420.3,228.4 421.7,260.7 423.2,227.6 424.6,195.2 426.1,233.5 427.5,246.8 429.0,276.4 430.4,241.9 431.8,221.5 433.3,206.7 434.7,239.1 436.2,234.8 437.6,188.5 439.1,221.1 440.5,195.0 442.0,217.7 443.4,234.9 444.9,197.7 446.3,225.6 447.8,202.7 449.2,222.0 450.7,221.5 452.1,217.7 453.6,248.1 455.0,218.7 456.5,233.5 457.9,256.7 459.4,234.1 460.8,207.4 462.3,231.3 463.7,263.7 465.2,268.2 466.6,227.4 468.0,238.2 469.5,232.3 470.9,244.1 472.4,270.6 473.8,287.0 475.3,236.2 476.7,249.7 478.2,214.8 479.6,203.4 481.1,218.1 482.5,203.5 484.0,238.1 485.4,262.2 486.9,226.3 488.3,231.1 489.8,225.2 491.2,247.0 492.7,213.0 494.1,224.1 495.6,245.1 497.0,199.9 498.5,204.3 499.9,234.4 501.3,231.0 502.8,218.4 504.2,227.8 505.7,266.9 507.1,207.6 508.6,207.8 510.0,216.2 511.5,189.0 512.9,215.1 514.4,207.8 515.8,215.4 517.3,219.4 518.7,243.8 520.2,202.1 521.6,230.0 523.1,212.3 524.5,266.9 526.0,224.3 527.4,241.8 528.9,208.3 530.3,226.2 531.8,254.7 533.2,233.2 534.7,218.3 536.1,249.0 537.5,228.7 539.0,230.5 540.4,245.6 541.9,233.0 543.3,239.6 544.8,190.1 546.2,190.5 547.7,219.2 549.1,240.0 550.6,202.8 552.0,227.1 553.5,209.9 554.9,216.1 556.4,210.4 557.8,220.8 559.3,211.2 560.7,230.7 562.2,235.5 563.6,268.1 565.1,261.6 566.5,223.3 568.0,250.1 569.4,249.1 570.8,232.3 572.3,254.3 573.7,225.5 575.2,225.2 576.6,256.1 578.1,250.1 579.5,194.6 581.0,254.1 582.4,225.9 583.9,233.7 585.3,208.0 586.8,231.1 588.2,218.4 589.7,258.9 591.1,230.8 592.6,256.5 594.0,258.9 595.5,253.6 596.9,188.3 598.4,233.7 599.8,248.9 601.3,237.6 602.7,224.6 604.2,206.4 605.6,252.9 607.0,262.6 608.5,212.3 609.9,251.6 611.4,267.4 612.8,269.1 614.3,220.7 615.7,201.3 617.2,221.7 618.6,192.9 620.1,219.1 621.5,220.3 623.0,224.8 624.4,210.7 625.9,229.5 627.3,211.8 628.8,207.7 630.2,228.9 631.7,213.2 633.1,231.3 634.6,270.6 636.0,210.6 637.5,237.4 638.9,238.4 640.4,207.2 641.8,241.5 643.2,224.9 644.7,236.3 646.1,258.4 647.6,197.3 649.0,230.9 650.5,225.4 651.9,227.4 653.4,239.6 654.8,257.1 656.3,246.0 657.7,191.0 659.2,236.5 660.6,210.7 662.1,240.1 663.5,205.8 665.0,212.7 666.4,194.5 667.9,223.9 669.3,237.6 670.8,264.9 672.2,204.3 673.7,217.3 675.1,192.6 676.5,245.4 678.0,232.1 679.4,236.0 680.9,207.5 682.3,252.7 683.8,238.4 685.2,243.3 686.7,212.3 688.1,229.2 689.6,224.4 691.0,253.1 692.5,236.3 693.9,224.1 695.4,226.7 696.8,234.2 698.3,227.6 699.7,213.4 701.2,206.1 702.6,229.9 704.1,274.6 705.5,255.2 707.0,211.7 708.4,251.5 709.9,226.0 711.3,209.9 712.7,236.9 714.2,195.9 715.6,225.1 717.1,236.0 718.5,276.6 720.0,247.9 721.4,215.8 722.9,201.4 724.3,230.9 725.8,217.7 727.2,216.8 728.7,235.7 730.1,268.6 731.6,231.2 733.0,237.2 734.5,284.6 735.9,196.8 737.4,234.9 738.8,233.3 740.3,235.4 741.7,263.9 743.2,235.3 744.6,190.6 746.0,206.5 747.5,219.2 748.9,222.3 750.4,202.4 751.8,212.4 753.3,224.7 754.7,212.1 756.2,182.9 757.6,203.0 759.1,207.6 760.5,206.3 762.0,232.7 763.4,194.6 764.9,281.5 766.3,200.7 767.8,202.9 769.2,218.8 770.7,210.2 772.1,262.3 773.6,234.7 775.0,206.8 776.5,260.2 777.9,222.3 779.4,220.4 780.8,248.6 782.2,280.0 783.7,213.1 785.1,243.2 786.6,220.8 788.0,204.0 789.5,239.5 790.9,202.8 792.4,208.9 793.8,210.8 795.3,243.8 796.7,240.8 798.2,240.4 799.6,216.5 801.1,253.1 802.5,242.1 804.0,218.3 805.4,202.9 806.9,229.8 808.3,221.3 809.8,231.9 811.2,222.7 812.7,225.7 814.1,189.7 815.6,237.5 817.0,253.2 818.4,228.0 819.9,217.8 821.3,250.3 822.8,191.1 824.2,234.6 825.7,221.3 827.1,210.4 828.6,212.7 830.0,229.5 831.5,222.2 832.9,214.9 834.4,243.9 835.8,214.8 837.3,249.1 838.7,231.7 840.2,197.5 841.6,234.3 843.1,237.3 844.5,227.9 846.0,233.2 847.4,238.6 848.9,220.5 850.3,222.1 851.7,261.4 853.2,249.5 854.6,238.2 856.1,253.7 857.5,215.3 859.0,213.1 860.4,250.1 861.9,219.8 863.3,211.4 864.8,248.0 866.2,244.6 867.7,233.7 869.1,214.5 870.6,231.7 872.0,239.8 873.5,237.3 874.9,231.6 876.4,245.4 877.8,200.8 879.3,222.0 880.7,240.0 882.2,217.2 883.6,201.7 885.1,284.9 886.5,230.2 887.9,266.9 889.4,237.6 890.8,256.0 892.3,217.5 893.7,224.7 895.2,205.6 896.6,201.3 898.1,245.4 899.5,239.6 901.0,252.9 902.4,211.3 903.9,221.5 905.3,255.2 906.8,221.4 908.2,234.9 909.7,239.2 911.1,215.0 912.6,255.3 914.0,225.1 915.5,215.3 916.9,209.0 918.4,237.5 919.8,238.0 921.2,207.7 922.7,230.5 924.1,237.7 925.6,235.1 927.0,247.2 928.5,241.4 929.9,207.7 931.4,202.4 932.8,174.0 934.3,223.7 935.7,236.7 937.2,208.1 938.6,203.2 940.1,200.3 941.5,219.6 943.0,245.0 944.4,216.8 945.9,216.7 947.3,259.0 948.8,236.1 950.2,259.3 951.7,228.5 953.1,211.1 954.6,226.7 956.0,181.4"/>
<line x1="750" y1="142" x2="780" y2="142" stroke="#0891b2" stroke-width="2.5"/>
<text x="786" y="146" font-family="Times New Roman" font-size="16">SC-NFV</text>
<polyline fill="none" stroke="#be123c" stroke-width="2.1" points="80.0,250.2 81.4,255.5 82.9,221.7 84.3,234.5 85.8,265.8 87.2,272.8 88.7,239.9 90.1,244.8 91.6,235.4 93.0,242.6 94.5,242.5 95.9,237.0 97.4,234.7 98.8,263.5 100.3,241.5 101.7,265.9 103.2,256.4 104.6,277.8 106.1,267.5 107.5,275.5 109.0,247.4 110.4,281.4 111.9,227.2 113.3,277.0 114.8,257.1 116.2,271.7 117.6,213.9 119.1,254.9 120.5,265.1 122.0,220.5 123.4,246.3 124.9,229.4 126.3,259.7 127.8,247.8 129.2,238.4 130.7,222.9 132.1,238.9 133.6,278.5 135.0,254.0 136.5,225.2 137.9,277.8 139.4,242.4 140.8,220.7 142.3,247.3 143.7,227.7 145.2,258.1 146.6,235.3 148.1,273.8 149.5,240.9 150.9,261.3 152.4,254.8 153.8,234.1 155.3,279.1 156.7,214.4 158.2,265.8 159.6,237.0 161.1,255.2 162.5,244.1 164.0,222.2 165.4,268.7 166.9,247.5 168.3,226.2 169.8,225.4 171.2,257.1 172.7,247.8 174.1,246.2 175.6,255.3 177.0,226.3 178.5,230.4 179.9,238.7 181.4,233.7 182.8,254.6 184.3,262.6 185.7,238.1 187.1,243.0 188.6,276.2 190.0,250.7 191.5,235.1 192.9,239.1 194.4,285.3 195.8,235.7 197.3,235.8 198.7,242.0 200.2,244.4 201.6,216.5 203.1,252.3 204.5,261.2 206.0,239.7 207.4,248.1 208.9,258.4 210.3,251.0 211.8,255.1 213.2,246.5 214.7,266.4 216.1,229.6 217.6,257.2 219.0,231.4 220.4,236.8 221.9,214.5 223.3,232.1 224.8,273.8 226.2,270.6 227.7,241.3 229.1,234.0 230.6,270.3 232.0,255.2 233.5,221.4 234.9,246.8 236.4,245.0 237.8,230.7 239.3,272.2 240.7,237.6 242.2,267.1 243.6,261.0 245.1,258.1 246.5,241.4 248.0,228.3 249.4,230.6 250.9,246.9 252.3,272.2 253.8,241.2 255.2,236.3 256.6,266.7 258.1,231.9 259.5,295.5 261.0,269.8 262.4,247.1 263.9,230.6 265.3,239.1 266.8,246.8 268.2,232.7 269.7,267.8 271.1,261.5 272.6,280.3 274.0,239.8 275.5,237.7 276.9,259.0 278.4,227.3 279.8,274.0 281.3,228.9 282.7,239.8 284.2,239.1 285.6,257.5 287.1,242.5 288.5,255.6 290.0,250.8 291.4,265.3 292.8,260.9 294.3,250.0 295.7,280.0 297.2,257.2 298.6,271.0 300.1,272.2 301.5,239.3 303.0,242.3 304.4,294.2 305.9,223.0 307.3,219.3 308.8,281.0 310.2,248.2 311.7,241.0 313.1,223.5 314.6,230.0 316.0,231.1 317.5,270.8 318.9,249.1 320.4,242.4 321.8,246.6 323.3,244.3 324.7,226.9 326.1,249.7 327.6,252.6 329.0,245.1 330.5,235.3 331.9,262.4 333.4,270.5 334.8,277.5 336.3,244.3 337.7,253.8 339.2,238.4 340.6,234.9 342.1,237.3 343.5,248.9 345.0,247.3 346.4,260.3 347.9,255.0 349.3,240.7 350.8,268.4 352.2,224.2 353.7,243.0 355.1,262.8 356.6,242.7 358.0,226.9 359.5,219.6 360.9,259.2 362.3,260.1 363.8,252.2 365.2,251.2 366.7,225.6 368.1,271.5 369.6,232.8 371.0,253.2 372.5,233.5 373.9,300.3 375.4,234.4 376.8,223.0 378.3,278.3 379.7,264.8 381.2,240.5 382.6,261.4 384.1,252.2 385.5,238.0 387.0,235.4 388.4,244.4 389.9,235.6 391.3,247.1 392.8,215.3 394.2,247.0 395.6,279.2 397.1,253.8 398.5,245.3 400.0,251.5 401.4,253.9 402.9,242.2 404.3,249.4 405.8,261.0 407.2,237.4 408.7,286.9 410.1,216.0 411.6,256.8 413.0,280.0 414.5,248.2 415.9,251.4 417.4,257.2 418.8,257.5 420.3,220.9 421.7,286.5 423.2,238.7 424.6,232.1 426.1,266.6 427.5,251.8 429.0,249.6 430.4,248.0 431.8,268.4 433.3,249.0 434.7,244.2 436.2,236.3 437.6,227.6 439.1,253.5 440.5,230.8 442.0,274.4 443.4,248.8 444.9,280.3 446.3,252.8 447.8,258.4 449.2,246.2 450.7,235.5 452.1,241.2 453.6,224.2 455.0,230.7 456.5,234.2 457.9,256.4 459.4,257.6 460.8,240.4 462.3,257.4 463.7,265.3 465.2,293.1 466.6,240.5 468.0,226.2 469.5,258.7 470.9,252.1 472.4,258.6 473.8,246.0 475.3,253.6 476.7,236.7 478.2,249.6 479.6,232.5 481.1,269.0 482.5,231.9 484.0,263.2 485.4,267.4 486.9,250.7 488.3,264.4 489.8,235.9 491.2,273.3 492.7,237.2 494.1,253.6 495.6,238.5 497.0,226.7 498.5,216.9 499.9,226.8 501.3,246.0 502.8,254.1 504.2,278.9 505.7,259.6 507.1,206.0 508.6,211.2 510.0,222.4 511.5,231.7 512.9,236.4 514.4,237.5 515.8,257.1 517.3,236.8 518.7,268.8 520.2,245.6 521.6,225.2 523.1,233.2 524.5,237.4 526.0,264.2 527.4,236.1 528.9,246.1 530.3,245.3 531.8,248.6 533.2,288.0 534.7,238.1 536.1,246.2 537.5,242.6 539.0,234.7 540.4,243.2 541.9,269.6 543.3,257.1 544.8,245.6 546.2,254.5 547.7,240.8 549.1,249.0 550.6,217.4 552.0,222.0 553.5,259.2 554.9,232.7 556.4,231.5 557.8,233.9 559.3,263.6 560.7,259.4 562.2,238.2 563.6,276.7 565.1,249.8 566.5,257.4 568.0,265.8 569.4,253.4 570.8,246.4 572.3,245.8 573.7,215.4 575.2,227.9 576.6,240.9 578.1,274.0 579.5,233.2 581.0,230.7 582.4,227.5 583.9,240.9 585.3,257.6 586.8,248.1 588.2,219.9 589.7,232.6 591.1,286.4 592.6,243.6 594.0,229.8 595.5,246.8 596.9,235.3 598.4,247.1 599.8,248.3 601.3,268.6 602.7,234.8 604.2,233.5 605.6,254.2 607.0,241.0 608.5,237.2 609.9,239.8 611.4,261.5 612.8,252.8 614.3,262.3 615.7,225.5 617.2,271.2 618.6,254.2 620.1,234.2 621.5,248.1 623.0,229.7 624.4,251.7 625.9,239.7 627.3,248.0 628.8,209.8 630.2,241.8 631.7,249.1 633.1,234.8 634.6,233.0 636.0,245.7 637.5,262.7 638.9,243.6 640.4,247.3 641.8,214.9 643.2,262.2 644.7,246.6 646.1,238.9 647.6,256.3 649.0,231.0 650.5,238.1 651.9,215.4 653.4,274.7 654.8,255.1 656.3,273.3 657.7,256.8 659.2,267.1 660.6,219.8 662.1,242.7 663.5,242.5 665.0,254.7 666.4,244.1 667.9,217.5 669.3,244.6 670.8,243.4 672.2,221.9 673.7,249.8 675.1,241.0 676.5,223.9 678.0,237.7 679.4,291.3 680.9,212.5 682.3,259.7 683.8,226.6 685.2,242.4 686.7,221.0 688.1,230.5 689.6,228.8 691.0,233.7 692.5,241.6 693.9,244.6 695.4,256.4 696.8,233.5 698.3,241.2 699.7,240.1 701.2,238.6 702.6,263.7 704.1,246.3 705.5,265.1 707.0,264.6 708.4,267.9 709.9,231.1 711.3,256.7 712.7,263.5 714.2,257.0 715.6,262.9 717.1,264.2 718.5,291.0 720.0,231.1 721.4,239.3 722.9,231.4 724.3,271.8 725.8,224.2 727.2,266.3 728.7,262.5 730.1,266.8 731.6,249.8 733.0,223.0 734.5,232.4 735.9,268.4 737.4,264.1 738.8,271.2 740.3,229.7 741.7,235.3 743.2,270.8 744.6,229.5 746.0,259.7 747.5,244.5 748.9,256.3 750.4,254.5 751.8,249.9 753.3,237.6 754.7,248.2 756.2,229.9 757.6,238.2 759.1,234.7 760.5,237.6 762.0,264.8 763.4,246.1 764.9,275.6 766.3,234.8 767.8,261.2 769.2,229.4 770.7,231.8 772.1,284.4 773.6,255.4 775.0,233.2 776.5,253.3 777.9,255.9 779.4,228.0 780.8,271.4 782.2,312.2 783.7,241.8 785.1,278.4 786.6,247.9 788.0,252.0 789.5,244.8 790.9,227.5 792.4,248.8 793.8,273.1 795.3,218.7 796.7,231.1 798.2,245.7 799.6,261.9 801.1,244.3 802.5,259.7 804.0,239.7 805.4,236.0 806.9,237.8 808.3,251.9 809.8,247.5 811.2,252.6 812.7,247.0 814.1,247.9 815.6,274.6 817.0,264.8 818.4,249.2 819.9,231.4 821.3,251.0 822.8,265.1 824.2,237.2 825.7,237.1 827.1,257.2 828.6,250.6 830.0,243.8 831.5,253.0 832.9,253.6 834.4,258.7 835.8,251.6 837.3,270.0 838.7,260.6 840.2,233.3 841.6,247.4 843.1,236.4 844.5,245.5 846.0,217.4 847.4,208.9 848.9,229.5 850.3,254.6 851.7,261.4 853.2,251.0 854.6,243.2 856.1,253.9 857.5,256.7 859.0,280.2 860.4,248.3 861.9,232.1 863.3,248.8 864.8,254.9 866.2,246.7 867.7,246.2 869.1,216.9 870.6,246.8 872.0,282.9 873.5,243.6 874.9,278.0 876.4,277.4 877.8,258.3 879.3,255.4 880.7,246.3 882.2,251.9 883.6,215.7 885.1,254.0 886.5,237.8 887.9,245.8 889.4,233.9 890.8,278.9 892.3,220.6 893.7,259.8 895.2,229.0 896.6,237.2 898.1,246.5 899.5,231.5 901.0,262.8 902.4,256.6 903.9,250.8 905.3,224.2 906.8,293.3 908.2,281.8 909.7,260.0 911.1,225.5 912.6,244.6 914.0,231.5 915.5,240.5 916.9,230.8 918.4,242.9 919.8,233.8 921.2,248.4 922.7,255.7 924.1,247.1 925.6,262.3 927.0,240.9 928.5,266.3 929.9,234.1 931.4,274.6 932.8,227.6 934.3,243.8 935.7,258.0 937.2,237.2 938.6,236.8 940.1,241.7 941.5,237.0 943.0,226.5 944.4,247.9 945.9,275.1 947.3,217.9 948.8,233.7 950.2,238.6 951.7,217.9 953.1,263.2 954.6,252.7 956.0,252.5"/>
<line x1="750" y1="160" x2="780" y2="160" stroke="#be123c" stroke-width="2.5"/>
<text x="786" y="164" font-family="Times New Roman" font-size="16">Fairness-NFV</text>
</svg>